<svg width="27" height="27" viewBox="0 0 27 27" fill="none" xmlns="http://www.w3.org/2000/svg">
    <path d="M24.6209 0.269531H1.61306C1.23596 0.269531 0.874315 0.419332 0.607669 0.685977C0.341023 0.952623 0.191223 1.31427 0.191223 1.69137V24.6993C0.191223 25.0764 0.341023 25.438 0.607669 25.7046C0.874315 25.9713 1.23596 26.1211 1.61306 26.1211H13.996V16.1036H10.6353V12.2259H13.996V9.31758C13.9263 8.63478 14.007 7.94502 14.2321 7.29668C14.4573 6.64834 14.8216 6.05711 15.2995 5.56446C15.7773 5.07182 16.3572 4.68968 16.9984 4.44487C17.6396 4.20005 18.3266 4.09847 19.0112 4.14727C20.0172 4.14032 21.0228 4.19211 22.0229 4.30237V7.79234H19.9677C18.339 7.79234 18.0288 8.56788 18.0288 9.69243V12.1871H21.9065L21.4024 16.0648H18.0288V26.1211H24.6209C24.8077 26.1211 24.9926 26.0843 25.1651 26.0129C25.3376 25.9414 25.4943 25.8367 25.6263 25.7046C25.7584 25.5726 25.8631 25.4159 25.9346 25.2434C26.006 25.0709 26.0428 24.886 26.0428 24.6993V1.69137C26.0428 1.50465 26.006 1.31976 25.9346 1.14725C25.8631 0.974749 25.7584 0.818007 25.6263 0.685977C25.4943 0.553948 25.3376 0.449216 25.1651 0.377762C24.9926 0.306308 24.8077 0.269531 24.6209 0.269531Z" fill="white"/>
</svg>
