<svg width="27" height="27" viewBox="0 0 27 27" fill="none" xmlns="http://www.w3.org/2000/svg">
    <path d="M7.73122 0.421875H18.6512C22.8112 0.421875 26.1912 3.80188 26.1912 7.96187V18.8819C26.1912 20.8816 25.3968 22.7994 23.9828 24.2135C22.5688 25.6275 20.651 26.4219 18.6512 26.4219H7.73122C3.57122 26.4219 0.191223 23.0419 0.191223 18.8819V7.96187C0.191223 5.96214 0.985614 4.04431 2.39964 2.63029C3.81366 1.21627 5.73149 0.421875 7.73122 0.421875ZM7.47122 3.02187C6.23001 3.02187 5.03963 3.51495 4.16196 4.39262C3.28429 5.27029 2.79122 6.46066 2.79122 7.70187V19.1419C2.79122 21.7289 4.88422 23.8219 7.47122 23.8219H18.9112C20.1524 23.8219 21.3428 23.3288 22.2205 22.4511C23.0982 21.5735 23.5912 20.3831 23.5912 19.1419V7.70187C23.5912 5.11487 21.4982 3.02187 18.9112 3.02187H7.47122ZM20.0162 4.97187C20.4472 4.97187 20.8605 5.14308 21.1653 5.44783C21.47 5.75257 21.6412 6.1659 21.6412 6.59687C21.6412 7.02785 21.47 7.44118 21.1653 7.74592C20.8605 8.05067 20.4472 8.22187 20.0162 8.22187C19.5852 8.22187 19.1719 8.05067 18.8672 7.74592C18.5624 7.44118 18.3912 7.02785 18.3912 6.59687C18.3912 6.1659 18.5624 5.75257 18.8672 5.44783C19.1719 5.14308 19.5852 4.97187 20.0162 4.97187ZM13.1912 6.92188C14.9151 6.92188 16.5684 7.60669 17.7874 8.82568C19.0064 10.0447 19.6912 11.698 19.6912 13.4219C19.6912 15.1458 19.0064 16.7991 17.7874 18.0181C16.5684 19.2371 14.9151 19.9219 13.1912 19.9219C11.4673 19.9219 9.81402 19.2371 8.59503 18.0181C7.37604 16.7991 6.69122 15.1458 6.69122 13.4219C6.69122 11.698 7.37604 10.0447 8.59503 8.82568C9.81402 7.60669 11.4673 6.92188 13.1912 6.92188ZM13.1912 9.52187C12.1569 9.52187 11.1649 9.93277 10.4335 10.6642C9.70211 11.3955 9.29122 12.3875 9.29122 13.4219C9.29122 14.4562 9.70211 15.4482 10.4335 16.1796C11.1649 16.911 12.1569 17.3219 13.1912 17.3219C14.2256 17.3219 15.2175 16.911 15.9489 16.1796C16.6803 15.4482 17.0912 14.4562 17.0912 13.4219C17.0912 12.3875 16.6803 11.3955 15.9489 10.6642C15.2175 9.93277 14.2256 9.52187 13.1912 9.52187Z" fill="white"/>
</svg>
