<svg width="27" height="27" viewBox="0 0 27 27" fill="none" xmlns="http://www.w3.org/2000/svg">
    <path d="M23.4357 0.290039C24.2063 0.290039 24.9453 0.596159 25.4902 1.14106C26.0351 1.68595 26.3412 2.42499 26.3412 3.1956V23.5345C26.3412 24.3051 26.0351 25.0441 25.4902 25.589C24.9453 26.1339 24.2063 26.44 23.4357 26.44H3.09678C2.32618 26.44 1.58714 26.1339 1.04224 25.589C0.497343 25.0441 0.191223 24.3051 0.191223 23.5345V3.1956C0.191223 2.42499 0.497343 1.68595 1.04224 1.14106C1.58714 0.596159 2.32618 0.290039 3.09678 0.290039H23.4357ZM22.7093 22.8081V15.1084C22.7093 13.8523 22.2103 12.6477 21.3221 11.7595C20.4339 10.8713 19.2293 10.3723 17.9732 10.3723C16.7384 10.3723 15.3001 11.1278 14.6028 12.2609V10.6483H10.5495V22.8081H14.6028V15.6459C14.6028 14.5273 15.5035 13.612 16.6221 13.612C17.1616 13.612 17.6789 13.8263 18.0603 14.2077C18.4417 14.5892 18.656 15.1065 18.656 15.6459V22.8081H22.7093ZM5.828 8.36749C6.47531 8.36749 7.0961 8.11034 7.55381 7.65263C8.01153 7.19492 8.26867 6.57412 8.26867 5.92682C8.26867 4.57573 7.17909 3.47162 5.828 3.47162C5.17684 3.47162 4.55236 3.73029 4.09192 4.19073C3.63148 4.65117 3.37281 5.27566 3.37281 5.92682C3.37281 7.2779 4.47692 8.36749 5.828 8.36749ZM7.84736 22.8081V10.6483H3.82317V22.8081H7.84736Z" fill="white"/>
</svg>
