<svg width="28" height="20" viewBox="0 0 28 20" fill="none" xmlns="http://www.w3.org/2000/svg">
    <path d="M11.0787 14.3916L18.142 10.3088L11.0787 6.22598V14.3916ZM26.8112 3.73546C26.9881 4.3751 27.1106 5.23249 27.1922 6.32124C27.2875 7.40999 27.3283 8.34904 27.3283 9.1656L27.41 10.3088C27.41 13.2892 27.1922 15.4803 26.8112 16.8821C26.4709 18.107 25.6816 18.8963 24.4567 19.2365C23.8171 19.4135 22.6467 19.5359 20.8503 19.6176C19.081 19.7129 17.4615 19.7537 15.9645 19.7537L13.8006 19.8354C8.09827 19.8354 4.54622 19.6176 3.14446 19.2365C1.91961 18.8963 1.13027 18.107 0.790036 16.8821C0.613114 16.2425 0.490629 15.3851 0.408973 14.2963C0.313708 13.2076 0.272879 12.2685 0.272879 11.452L0.191223 10.3088C0.191223 7.32834 0.408973 5.13723 0.790036 3.73546C1.13027 2.51062 1.91961 1.72127 3.14446 1.38104C3.7841 1.20412 4.9545 1.08163 6.75094 0.999976C8.52016 0.904711 10.1397 0.863883 11.6367 0.863883L13.8006 0.782227C19.5029 0.782227 23.055 0.999977 24.4567 1.38104C25.6816 1.72127 26.4709 2.51062 26.8112 3.73546Z" fill="white"/>
</svg>
