<svg width="258" height="99" viewBox="0 0 258 99" fill="none" xmlns="http://www.w3.org/2000/svg">
    <path d="M31.1489 58.5238L48.3407 47.9403H57.2627C57.538 47.9403 57.7896 48.1555 57.7896 48.4619C57.7896 48.7107 57.675 48.8131 57.538 48.8922L49.0964 53.9007C48.5465 54.2293 48.3519 54.8752 48.3519 55.3625L48.3407 58.5238H59.0728V40.178C59.0728 39.8268 58.7976 39.521 58.3854 39.521H48.1461L31 50.0591V58.5238H31.1489Z" fill="white"/>
    <path d="M172.117 58.5244H187.58V54.4107H177.019V50.9662H185.518V46.8414H177.019V43.6347H187.58V39.521H172.117V58.5244Z" fill="white"/>
    <path d="M74.9586 39.521L67.5938 58.5244H72.6564L73.9389 54.9659H82.1629L83.4226 58.5244H88.6569L81.2009 39.521H74.9586ZM75.3938 50.9208L78.0853 43.476L80.731 50.9208H75.3938Z" fill="white"/>
    <path d="M109.664 43.6347H115.86V58.5244H120.751V43.6347H126.925V39.521H109.664V43.6347Z" fill="white"/>
    <path d="M102.54 51.2041C102.54 53.6747 101.006 54.6719 98.3829 54.6719C95.8401 54.6719 94.1794 53.6294 94.1794 51.2041V39.4531H89.2773V51.7594C89.2773 57.2436 94.2253 58.9548 98.3711 58.9548C102.495 58.9548 107.42 57.2436 107.42 51.7594V39.4531H102.518V51.2041H102.54Z" fill="white"/>
    <path d="M228 39.521H222.17L215.184 47.2379V39.521H210.281L210.304 58.5244H215.184V51.3063L221.804 58.5244H228L219.066 49.1416L228 39.521Z" fill="white"/>
    <path d="M160.597 39.521H151.617V58.5244H160.597C167.481 58.5244 169.382 55.9858 169.382 48.8811C169.382 42.2067 167.561 39.521 160.597 39.521ZM160.402 54.4107H156.508V43.6347H160.402C163.472 43.6347 164.388 44.4615 164.388 48.8811C164.388 52.9152 163.357 54.4107 160.402 54.4107Z" fill="white"/>
    <path d="M202.391 47.3403L197.924 46.8414C195.312 46.5582 194.659 45.9122 194.659 45.0395C194.659 44.065 196 43.1928 198.622 43.1928C201.142 43.1928 202.459 44.122 202.7 45.5157H207.499C207.258 41.4927 203.857 39 198.886 39C192.976 39 190.01 41.3229 190.01 45.4366C190.01 48.7793 191.98 50.3545 196.057 50.7848L200.592 51.261C202.322 51.4534 203.112 52.1104 203.112 52.9716C203.112 53.9461 201.955 54.8188 199.172 54.8188C195.954 54.8188 194.659 54.0141 194.442 52.3936H189.734C189.952 56.7678 192.827 59 199 59C204.635 59 207.785 56.5527 207.785 52.8698C207.785 49.6631 205.918 47.7368 202.391 47.3403Z" fill="white"/>
    <path d="M138.317 39C131.33 39 127.711 43.2492 127.711 48.9718C127.711 54.7171 131.33 58.989 138.317 58.989C145.326 58.989 148.946 54.7171 148.946 48.9718C148.957 43.2492 145.326 39 138.317 39ZM138.317 54.7171C134.697 54.7171 132.705 52.5297 132.705 48.9718C132.705 45.4814 134.697 43.2719 138.317 43.2719C141.97 43.2719 143.929 45.4814 143.929 48.9718C143.94 52.5413 141.97 54.7171 138.317 54.7171Z" fill="white"/>
</svg>
