<svg width="45" height="43" viewBox="0 0 45 43" fill="none" xmlns="http://www.w3.org/2000/svg">
<path d="M13.25 14.3749C12.318 14.3749 11.5625 15.1304 11.5625 16.0624C11.5625 16.9944 12.318 17.7499 13.25 17.7499H17.875C18.807 17.7499 19.5625 16.9944 19.5625 16.0624C19.5625 15.1304 18.807 14.3749 17.875 14.3749H13.25Z" fill="url(#paint0_linear_589_5868)"/>
<path d="M25.4375 16.0624C25.4375 15.1304 26.193 14.3749 27.125 14.3749H31.75C32.682 14.3749 33.4375 15.1304 33.4375 16.0624C33.4375 16.9944 32.682 17.7499 31.75 17.7499H27.125C26.193 17.7499 25.4375 16.9944 25.4375 16.0624Z" fill="url(#paint1_linear_589_5868)"/>
<path d="M20.1875 23.6251C19.2555 23.6251 18.5 24.3806 18.5 25.3126C18.5 26.2446 19.2555 27.0001 20.1875 27.0001H24.8125C25.7445 27.0001 26.5 26.2446 26.5 25.3126C26.5 24.3806 25.7445 23.6251 24.8125 23.6251H20.1875Z" fill="url(#paint2_linear_589_5868)"/>
<path fill-rule="evenodd" clip-rule="evenodd" d="M10.9405 0.5C6.17805 0.5 2.31248 4.36058 2.31248 9.125V12.1821C2.11919 12.105 1.9083 12.0626 1.6875 12.0626C0.755519 12.0626 0 12.8181 0 13.7501V23.0001C0 23.932 0.755522 24.6876 1.6875 24.6876C1.9083 24.6876 2.11919 24.6452 2.31248 24.568V27.625C2.31248 32.3885 6.17403 36.25 10.9375 36.25H11.5625V38.2296C11.5625 41.7933 15.8711 43.5779 18.3909 41.0581L22.3386 37.1104C22.8895 36.5595 23.6367 36.25 24.4157 36.25H34.0625C38.8259 36.25 42.6875 32.3885 42.6875 27.625V24.568C42.8808 24.6451 43.0917 24.6876 43.3125 24.6876C44.2445 24.6876 45 23.932 45 23.0001L45 13.7501C45 12.8181 44.2445 12.0626 43.3125 12.0626C43.0917 12.0626 42.8808 12.105 42.6875 12.1821V9.125C42.6875 4.36058 38.8219 0.5 34.0594 0.5H10.9405ZM5.68749 9.125C5.68749 6.22647 8.04008 3.875 10.9405 3.875H34.0594C36.9599 3.875 39.3125 6.22647 39.3125 9.125V27.625C39.3125 30.5245 36.962 32.875 34.0625 32.875H24.4157C22.7415 32.875 21.1359 33.5401 19.9521 34.7239L16.0044 38.6716C15.6107 39.0653 14.9375 38.7864 14.9375 38.2296V34.5625C14.9375 33.6305 14.182 32.875 13.25 32.875H10.9375C8.03799 32.875 5.68749 30.5245 5.68749 27.625V9.125Z" fill="url(#paint3_linear_589_5868)"/>
<defs>
<linearGradient id="paint0_linear_589_5868" x1="-6.70552e-07" y1="42.2376" x2="21.2423" y2="-9.29347" gradientUnits="userSpaceOnUse">
<stop stop-color="#76C38F"/>
<stop offset="0.484375" stop-color="#60CF8C"/>
<stop offset="1" stop-color="#A7C12C"/>
</linearGradient>
<linearGradient id="paint1_linear_589_5868" x1="-6.70552e-07" y1="42.2376" x2="21.2423" y2="-9.29347" gradientUnits="userSpaceOnUse">
<stop stop-color="#76C38F"/>
<stop offset="0.484375" stop-color="#60CF8C"/>
<stop offset="1" stop-color="#A7C12C"/>
</linearGradient>
<linearGradient id="paint2_linear_589_5868" x1="-6.70552e-07" y1="42.2376" x2="21.2423" y2="-9.29347" gradientUnits="userSpaceOnUse">
<stop stop-color="#76C38F"/>
<stop offset="0.484375" stop-color="#60CF8C"/>
<stop offset="1" stop-color="#A7C12C"/>
</linearGradient>
<linearGradient id="paint3_linear_589_5868" x1="-6.70552e-07" y1="42.2376" x2="21.2423" y2="-9.29347" gradientUnits="userSpaceOnUse">
<stop stop-color="#76C38F"/>
<stop offset="0.484375" stop-color="#60CF8C"/>
<stop offset="1" stop-color="#A7C12C"/>
</linearGradient>
</defs>
</svg>
