<svg width="29" height="23" viewBox="0 0 29 23" fill="none" xmlns="http://www.w3.org/2000/svg">
    <path fill-rule="evenodd" clip-rule="evenodd" d="M20.9251 0.157227H8.36691H8.36689C7.22817 0.157217 6.3097 0.157209 5.56594 0.217977C4.80014 0.280545 4.12749 0.412736 3.50517 0.729823C2.51667 1.23349 1.71299 2.03717 1.20932 3.02568C0.892228 3.648 0.760037 4.32064 0.697469 5.08645C0.636701 5.83021 0.636709 6.74867 0.636719 7.8874V7.88741V14.8419V14.8419C0.636709 15.9807 0.636701 16.8991 0.697469 17.6429C0.760037 18.4087 0.892228 19.0813 1.20932 19.7037C1.71299 20.6922 2.51667 21.4958 3.50517 21.9995C4.12749 22.3166 4.80014 22.4488 5.56594 22.5114C6.30971 22.5721 7.2282 22.5721 8.36695 22.5721H20.9251C22.0638 22.5721 22.9823 22.5721 23.7261 22.5114C24.4919 22.4488 25.1645 22.3166 25.7869 21.9995C26.7754 21.4958 27.5791 20.6922 28.0827 19.7037C28.3998 19.0813 28.532 18.4087 28.5946 17.6429C28.6553 16.8991 28.6553 15.9807 28.6553 14.842V7.88739C28.6553 6.74867 28.6553 5.83021 28.5946 5.08645C28.532 4.32064 28.3998 3.648 28.0827 3.02568C27.5791 2.03717 26.7754 1.23349 25.7869 0.729823C25.1645 0.412736 24.4919 0.280545 23.7261 0.217977C22.9823 0.157209 22.0639 0.157217 20.9252 0.157227H20.9251ZM4.45919 2.60218C4.73589 2.46119 5.10121 2.36434 5.73706 2.31239C6.38517 2.25944 7.21765 2.25862 8.41188 2.25862H20.8802C22.0744 2.25862 22.9069 2.25944 23.555 2.31239C24.1908 2.36434 24.5561 2.46119 24.8329 2.60218C25.426 2.90438 25.9082 3.38659 26.2104 3.9797C26.3514 4.2564 26.4482 4.62172 26.5002 5.25757C26.5531 5.90568 26.5539 6.73816 26.5539 7.93239V14.7969C26.5539 15.9912 26.5531 16.8237 26.5002 17.4718C26.4482 18.1076 26.3514 18.4729 26.2104 18.7496C25.9082 19.3427 25.426 19.825 24.8329 20.1272C24.5561 20.2681 24.1908 20.365 23.555 20.4169C22.9069 20.4699 22.0744 20.4707 20.8802 20.4707H8.41188C7.21765 20.4707 6.38517 20.4699 5.73706 20.4169C5.10121 20.365 4.73589 20.2681 4.45919 20.1272C3.86608 19.825 3.38387 19.3427 3.08167 18.7496C2.94068 18.4729 2.84384 18.1076 2.79188 17.4718C2.73893 16.8237 2.73811 15.9912 2.73811 14.7969V7.93239C2.73811 6.73816 2.73893 5.90568 2.79188 5.25757C2.84384 4.62172 2.94068 4.2564 3.08167 3.9797C3.38387 3.38659 3.86608 2.90438 4.45919 2.60218ZM7.60644 7.04945C7.15732 6.68199 6.49536 6.74819 6.1279 7.19731C5.76044 7.64642 5.82664 8.30838 6.27575 8.67584L12.2066 13.5284C13.6258 14.6895 15.6666 14.6895 17.0858 13.5284L23.0167 8.67584C23.4658 8.30838 23.532 7.64642 23.1645 7.19731C22.7971 6.74819 22.1351 6.68199 21.686 7.04945L15.7551 11.902C15.11 12.4298 14.1824 12.4298 13.5373 11.902L7.60644 7.04945Z" fill="white"/>
</svg>
