<svg width="29" height="28" viewBox="0 0 29 28" fill="none" xmlns="http://www.w3.org/2000/svg">
    <path fill-rule="evenodd" clip-rule="evenodd" d="M9.0423 5.56953C6.91459 5.56953 5.18974 7.29437 5.18974 9.42208C5.18974 11.5498 6.91459 13.2746 9.0423 13.2746C11.17 13.2746 12.8949 11.5498 12.8949 9.42208C12.8949 7.29437 11.17 5.56953 9.0423 5.56953ZM7.29114 9.42208C7.29114 8.45494 8.07516 7.67092 9.0423 7.67092C10.0094 7.67092 10.7935 8.45494 10.7935 9.42208C10.7935 10.3892 10.0094 11.1732 9.0423 11.1732C8.07516 11.1732 7.29114 10.3892 7.29114 9.42208Z" fill="white"/>
    <path fill-rule="evenodd" clip-rule="evenodd" d="M9.14068 0.982658C13.7202 1.05887 17.4479 4.71785 17.4479 9.26899C17.4479 11.7538 16.334 13.745 14.993 15.2387C13.6583 16.7255 12.053 17.7736 10.9313 18.4095C9.77006 19.0677 8.31454 19.0677 7.15335 18.4095C6.03155 17.7736 4.42628 16.7255 3.09157 15.2387C1.75063 13.745 0.636719 11.7538 0.636719 9.26899C0.636719 4.71785 4.36439 1.05887 8.94392 0.982658C8.96079 0.981853 8.97777 0.981445 8.99485 0.981445H9.08975C9.10683 0.981445 9.12381 0.981853 9.14068 0.982658ZM9.0423 3.08301C5.53407 3.10789 2.73811 5.88996 2.73811 9.26899C2.73811 11.0815 3.54156 12.5943 4.65529 13.8349C5.77527 15.0825 7.16203 15.9989 8.18959 16.5814C8.70799 16.8752 9.37661 16.8752 9.89501 16.5814C10.9226 15.9989 12.3093 15.0825 13.4293 13.8349C14.543 12.5943 15.3465 11.0815 15.3465 9.26899C15.3465 5.88996 12.5505 3.10789 9.0423 3.08301Z" fill="white"/>
    <path fill-rule="evenodd" clip-rule="evenodd" d="M18.8488 3.46813C18.8488 2.88785 19.3192 2.41743 19.8995 2.41743H23.4018C26.3033 2.41743 28.6553 4.7695 28.6553 7.67092V22.3807C28.6553 25.2821 26.3033 27.6342 23.4018 27.6342H8.69207C5.79065 27.6342 3.43858 25.2821 3.43858 22.3807V21.6802C3.43858 21.0999 3.90899 20.6295 4.48928 20.6295C5.06956 20.6295 5.53997 21.0999 5.53997 21.6802V22.3807C5.53997 24.1215 6.95121 25.5328 8.69207 25.5328H9.07813L17.9491 16.6619C17.9921 16.5906 18.0444 16.5234 18.1059 16.462C18.1673 16.4005 18.2345 16.3482 18.3057 16.3052L26.5539 8.05698V7.67092C26.5539 5.93007 25.1427 4.51883 23.4018 4.51883H19.8995C19.3192 4.51883 18.8488 4.04841 18.8488 3.46813ZM18.8704 18.7124L12.05 25.5328H23.4018C24.0516 25.5328 24.6555 25.3362 25.1572 24.9992L18.8704 18.7124ZM26.4206 23.2908L20.3563 17.2265L26.5539 11.0288V22.3807C26.5539 22.6971 26.5073 23.0026 26.4206 23.2908Z" fill="white"/>
</svg>
