<svg width="27" height="27" viewBox="0 0 27 27" fill="none" xmlns="http://www.w3.org/2000/svg">
    <path fill-rule="evenodd" clip-rule="evenodd" d="M1.72633 0.345947C2.32811 0.345947 2.81594 0.833783 2.81594 1.43556C2.81594 14.0729 13.0605 24.3174 25.6978 24.3174C26.2996 24.3174 26.7874 24.8053 26.7874 25.407C26.7874 26.0088 26.2996 26.4966 25.6978 26.4966C11.8569 26.4966 0.636719 15.2764 0.636719 1.43556C0.636719 0.833783 1.12455 0.345947 1.72633 0.345947Z" fill="white"/>
    <path fill-rule="evenodd" clip-rule="evenodd" d="M0.636719 1.43556C0.636719 0.833783 1.12455 0.345947 1.72633 0.345947H6.22098C8.47764 0.345947 10.307 2.17533 10.307 4.43199V7.49005C10.307 9.00862 9.46486 10.4019 8.12032 11.1078L4.72985 12.8878C4.19704 13.1675 3.53835 12.9624 3.25862 12.4296C2.97889 11.8968 3.18406 11.2381 3.71687 10.9583L7.10734 9.17834C7.73479 8.84893 8.1278 8.19872 8.1278 7.49005V4.43199C8.1278 3.37889 7.27409 2.52517 6.22098 2.52517H1.72633C1.12455 2.52517 0.636719 2.03734 0.636719 1.43556Z" fill="white"/>
    <path fill-rule="evenodd" clip-rule="evenodd" d="M25.6978 26.4966C26.2996 26.4966 26.7874 26.0088 26.7874 25.407V20.9124C26.7874 18.6557 24.958 16.8263 22.7014 16.8263H19.6433C18.1247 16.8263 16.7314 17.6685 16.0255 19.013L14.2455 22.4035C13.9658 22.9363 14.171 23.595 14.7038 23.8747C15.2366 24.1545 15.8953 23.9493 16.175 23.4165L17.955 20.026C18.2844 19.3986 18.9346 19.0056 19.6433 19.0056H22.7014C23.7545 19.0056 24.6082 19.8593 24.6082 20.9124V25.407C24.6082 26.0088 25.096 26.4966 25.6978 26.4966Z" fill="white"/>
</svg>
