<svg width="20" height="20" viewBox="0 0 20 20" fill="none" xmlns="http://www.w3.org/2000/svg">
<path fill-rule="evenodd" clip-rule="evenodd" d="M2.59077 1.80923C2.02955 1.52862 1.3924 2.02015 1.52137 2.63421L2.91091 9.24992H6.98545C7.39967 9.24992 7.73545 9.58571 7.73545 9.99992C7.73545 10.4141 7.39967 10.7499 6.98545 10.7499H2.91091L1.52137 17.3656C1.3924 17.9797 2.02955 18.4712 2.59077 18.1906L17.6305 10.6707C18.1833 10.3943 18.1833 9.60549 17.6305 9.3291L2.59077 1.80923ZM1.53571 9.99992L0.0534054 2.94254C-0.333522 1.10034 1.57794 -0.374238 3.26159 0.467589L18.3013 7.98746C19.9597 8.81664 19.9597 11.1832 18.3013 12.0124L3.26159 19.5323C1.57794 20.3741 -0.333522 18.8995 0.0534054 17.0573L1.53571 9.99992Z" fill="#0A090F"/>
</svg>
